G04 DipTrace 4.3.0.5*
G04 2 - Bottom.gbr*
%MOIN*%
G04 #@! TF.FileFunction,Copper,L2,Bot*
G04 #@! TF.Part,Single*
G04 #@! TA.AperFunction,Conductor*
%ADD16C,0.019685*%
%ADD17C,0.007874*%
G04 #@! TA.AperFunction,CopperBalancing*
%ADD18C,0.012992*%
G04 #@! TA.AperFunction,ComponentPad*
%ADD20C,0.064961*%
%ADD21C,0.062992*%
%ADD22R,0.062992X0.062992*%
%ADD23O,0.098425X0.07874*%
%ADD24R,0.088583X0.059055*%
%ADD25O,0.088583X0.059055*%
%ADD26R,0.070866X0.070866*%
%ADD27C,0.070866*%
%ADD28C,0.05*%
%ADD29C,0.05*%
%ADD30R,0.066929X0.066929*%
%ADD31C,0.066929*%
G04 #@! TA.AperFunction,ViaPad*
%ADD32C,0.04*%
%FSLAX26Y26*%
G04*
G70*
G90*
G75*
G01*
G04 Bottom*
%LPD*%
X3981201Y760236D2*
D16*
X3472736D1*
X3378937Y666437D1*
X3318701D1*
X2218701D1*
Y724951D1*
X2781201Y462451D2*
X2203986D1*
X2156201Y510236D1*
Y606201D1*
X2218701Y668701D1*
Y724951D1*
X2168701Y749950D2*
Y741486D1*
X2202167D1*
X2218701Y724951D1*
X1756201Y743701D2*
X1799950D1*
X1843701Y699950D1*
X2118701D1*
X2168701Y749950D1*
X1278101Y710877D2*
Y514026D1*
Y710877D2*
X1310925Y743701D1*
X1756201D1*
X3981201Y660236D2*
X3497736D1*
X3383465Y545965D1*
X3318701D1*
X3275171D1*
X3273399Y547736D1*
X2737451D1*
X2714667Y524951D1*
X2218701D1*
X1107283Y740403D2*
Y484497D1*
X1175689D1*
X1222736Y437450D1*
X1543701D1*
X1631201D1*
X1743701Y549950D1*
X1824950D1*
X1924954Y649954D1*
X1987451D1*
X2043701D1*
X593701Y560236D2*
X1107283D1*
Y484497D1*
X1543701Y541486D2*
D17*
Y437450D1*
X1987451Y478986D2*
Y649954D1*
Y478986D2*
D16*
X2043702D1*
X2068701Y453987D1*
D32*
X1543701Y541486D3*
X1987451Y478986D3*
X2068701Y453987D3*
X824253Y778379D2*
D18*
X899303D1*
X960924D2*
X1057886D1*
X1156681D2*
X1735722D1*
X1776688D2*
X1839786D1*
X1897613D2*
X2139798D1*
X2197613D2*
X2743614D1*
X2818786D2*
X3455009D1*
X765307Y765518D2*
X887808D1*
X972432D2*
X1057886D1*
X1156681D2*
X1298545D1*
X1812340D2*
X1830955D1*
X1906444D2*
X2130954D1*
X2243948D2*
X2740391D1*
X2822008D2*
X3442106D1*
X706360Y752657D2*
X882315D1*
X977925D2*
X1057886D1*
X1156681D2*
X1226745D1*
X1909539D2*
X2127858D1*
X2258106D2*
X2741495D1*
X2820904D2*
X3429253D1*
X647413Y739797D2*
X880728D1*
X979512D2*
X1057886D1*
X1156681D2*
X1226745D1*
X1908310D2*
X2122643D1*
X2264705D2*
X2747382D1*
X2815017D2*
X3416388D1*
X588466Y726936D2*
X882644D1*
X977583D2*
X1057886D1*
X1156681D2*
X1226745D1*
X1902257D2*
X2109778D1*
X2267064D2*
X2762315D1*
X2800084D2*
X3403522D1*
X3475345D2*
X3927547D1*
X545252Y714075D2*
X888570D1*
X971671D2*
X1057886D1*
X1156681D2*
X1226745D1*
X1329462D2*
X1728579D1*
X1783818D2*
X1793667D1*
X2265833D2*
X3390671D1*
X3462479D2*
X3942037D1*
X653921Y701214D2*
X900940D1*
X959301D2*
X1057886D1*
X1156681D2*
X1226745D1*
X1329462D2*
X1806531D1*
X2155870D2*
X2176706D1*
X2260696D2*
X3271280D1*
X3366130D2*
X3377804D1*
X3449627D2*
X3934892D1*
X653921Y688353D2*
X1226745D1*
X1329462D2*
X1815121D1*
X2143017D2*
X2187744D1*
X3436761D2*
X3923957D1*
X653921Y675492D2*
X1226745D1*
X1329462D2*
X1802814D1*
X2120840D2*
X2189584D1*
X3423896D2*
X3918260D1*
X653921Y662631D2*
X1226745D1*
X1329462D2*
X1797029D1*
X1890369D2*
X1997024D1*
X2090377D2*
X2176718D1*
X3411043D2*
X3916115D1*
X653921Y649770D2*
X1252323D1*
X1303871D2*
X1637126D1*
X1706475D2*
X1795290D1*
X1892108D2*
X1995298D1*
X2092114D2*
X2163866D1*
X3398178D2*
X3917080D1*
X653921Y636909D2*
X1252323D1*
X1303871D2*
X1626824D1*
X1716777D2*
X1797130D1*
X1890268D2*
X1997138D1*
X2090262D2*
X2151000D1*
X2222823D2*
X3271280D1*
X3366130D2*
X3921356D1*
X653921Y624049D2*
X1252323D1*
X1303871D2*
X1621799D1*
X1721801D2*
X1803055D1*
X1884354D2*
X2003050D1*
X2084350D2*
X2138135D1*
X2209958D2*
X3271280D1*
X3366130D2*
X3929983D1*
X545252Y611188D2*
X1252323D1*
X1303871D2*
X1620455D1*
X1723146D2*
X1815629D1*
X1871781D2*
X2015636D1*
X2071764D2*
X2130941D1*
X2197092D2*
X3947466D1*
X545252Y598327D2*
X555303D1*
X632100D2*
X1252323D1*
X1303871D2*
X1622472D1*
X1721129D2*
X2130434D1*
X2184240D2*
X3931785D1*
X646005Y585466D2*
X1252323D1*
X1303871D2*
X1628333D1*
X1715266D2*
X2130434D1*
X2181969D2*
X3293584D1*
X3343812D2*
X3922320D1*
X652159Y572605D2*
X1252323D1*
X1303871D2*
X1640197D1*
X1703404D2*
X1861038D1*
X1926364D2*
X2061045D1*
X2126358D2*
X2130434D1*
X2181969D2*
X3279743D1*
X3357655D2*
X3917499D1*
X653921Y559744D2*
X1252323D1*
X1303871D2*
X1850900D1*
X1936501D2*
X2050895D1*
X2251762D2*
X3273386D1*
X3364024D2*
X3916064D1*
X651854Y546883D2*
X1239026D1*
X1317168D2*
X1846244D1*
X1941157D2*
X2046239D1*
X2261697D2*
X3271280D1*
X3366117D2*
X3917739D1*
X645294Y534022D2*
X1230907D1*
X1325301D2*
X1845419D1*
X1941982D2*
X2045415D1*
X2266227D2*
X3272853D1*
X3364556D2*
X3922853D1*
X545252Y521161D2*
X557067D1*
X630336D2*
X897692D1*
X962549D2*
X1074862D1*
X1139706D2*
X1227253D1*
X1328954D2*
X1848198D1*
X1939203D2*
X2048193D1*
X2266963D2*
X3278512D1*
X3358885D2*
X3932787D1*
X545252Y508301D2*
X887034D1*
X973206D2*
X1064192D1*
X1150375D2*
X1227063D1*
X1329131D2*
X1855391D1*
X1932009D2*
X2055399D1*
X2264070D2*
X3290768D1*
X3346629D2*
X3945449D1*
X551672Y495440D2*
X881984D1*
X978256D2*
X1059155D1*
X1155413D2*
X1230323D1*
X1325883D2*
X1871087D1*
X1916315D2*
X2071081D1*
X2116310D2*
X2135407D1*
X2256724D2*
X2757938D1*
X2804462D2*
X3929108D1*
X613639Y482579D2*
X880766D1*
X979474D2*
X1057924D1*
X1156643D2*
X1237846D1*
X1318348D2*
X1747217D1*
X1765180D2*
X1822214D1*
X1840189D2*
X2122213D1*
X2140188D2*
X2147955D1*
X2816642D2*
X3920899D1*
X675605Y469718D2*
X883050D1*
X977190D2*
X1060220D1*
X1154348D2*
X1253504D1*
X1302703D2*
X1725013D1*
X1787396D2*
X1800010D1*
X1862392D2*
X2100009D1*
X2821463D2*
X3916902D1*
X737571Y456857D2*
X889458D1*
X970770D2*
X1066627D1*
X1147940D2*
X1717516D1*
X1869878D2*
X2092524D1*
X2821730D2*
X3916167D1*
X799538Y443996D2*
X902881D1*
X957360D2*
X1080051D1*
X1134516D2*
X1715269D1*
X1872125D2*
X2090277D1*
X2172123D2*
X2186614D1*
X2817568D2*
X3918564D1*
X861504Y431135D2*
X1717312D1*
X1870081D2*
X2092320D1*
X2170080D2*
X2755617D1*
X2806783D2*
X3924566D1*
X1940364Y530976D2*
X1939047Y524682D1*
X1936886Y518626D1*
X1933921Y512921D1*
X1930206Y507673D1*
X1925811Y502980D1*
X1920819Y498929D1*
X1915320Y495594D1*
X1909420Y493041D1*
X1903226Y491314D1*
X1896854Y490448D1*
X1890425Y490455D1*
X1884056Y491339D1*
X1877867Y493081D1*
X1871972Y495651D1*
X1866483Y498999D1*
X1861501Y503063D1*
X1857118Y507768D1*
X1853417Y513026D1*
X1850466Y518739D1*
X1848322Y524801D1*
X1847021Y531097D1*
X1846591Y537513D1*
X1847038Y543927D1*
X1848354Y550220D1*
X1850516Y556277D1*
X1853480Y561982D1*
X1857196Y567230D1*
X1861591Y571923D1*
X1866583Y575974D1*
X1872081Y579308D1*
X1877982Y581862D1*
X1884176Y583589D1*
X1890547Y584455D1*
X1896976Y584448D1*
X1903345Y583564D1*
X1909534Y581822D1*
X1915429Y579252D1*
X1920919Y575904D1*
X1925900Y571840D1*
X1930283Y567135D1*
X1933984Y561877D1*
X1936936Y556164D1*
X1939080Y550102D1*
X1940381Y543806D1*
X1940811Y537451D1*
X1940364Y530976D1*
X2124856Y676265D2*
X2130860Y678711D1*
X2136005Y682646D1*
X2164052Y710688D1*
X2165484Y710451D1*
X2172030Y710461D1*
X2173902Y710660D1*
X2175466Y706239D1*
X2178417Y700526D1*
X2182118Y695268D1*
X2186501Y690563D1*
X2191483Y686499D1*
X2194234Y684822D1*
X2194224Y678833D1*
X2138896Y623505D1*
X2135514Y619277D1*
X2132808Y613391D1*
X2131741Y606997D1*
X2131728Y600682D1*
X2131726Y565085D1*
X2130283Y567135D1*
X2125900Y571840D1*
X2120919Y575904D1*
X2115429Y579252D1*
X2109534Y581822D1*
X2103345Y583564D1*
X2096976Y584448D1*
X2090547Y584455D1*
X2084176Y583589D1*
X2077982Y581862D1*
X2072081Y579308D1*
X2066583Y575974D1*
X2061591Y571923D1*
X2057196Y567230D1*
X2053480Y561982D1*
X2050516Y556277D1*
X2048354Y550220D1*
X2047038Y543927D1*
X2046591Y537513D1*
X2047021Y531097D1*
X2048322Y524801D1*
X2050466Y518739D1*
X2053417Y513026D1*
X2057118Y507768D1*
X2061501Y503063D1*
X2066483Y498999D1*
X2071972Y495651D1*
X2077867Y493081D1*
X2084056Y491339D1*
X2090425Y490455D1*
X2096854Y490448D1*
X2103226Y491314D1*
X2109420Y493041D1*
X2115320Y495594D1*
X2120819Y498929D1*
X2125811Y502980D1*
X2130206Y507673D1*
X2131734Y509831D1*
X2132327Y504854D1*
X2134575Y498780D1*
X2138343Y493504D1*
X2140562Y491266D1*
X2186681Y445147D1*
X2190909Y441765D1*
X2196795Y439059D1*
X2203189Y437992D1*
X2209630Y437979D1*
X2750045Y437976D1*
X2754402Y433256D1*
X2759596Y429232D1*
X2167978Y429228D1*
X2168702Y430887D1*
X2170299Y437234D1*
X2170831Y443757D1*
X2170281Y450280D1*
X2168665Y456622D1*
X2166028Y462613D1*
X2162440Y468087D1*
X2158000Y472896D1*
X2152829Y476908D1*
X2147068Y480016D1*
X2140874Y482133D1*
X2134417Y483199D1*
X2127871Y483190D1*
X2121417Y482104D1*
X2115230Y479970D1*
X2109478Y476846D1*
X2104319Y472819D1*
X2099892Y467997D1*
X2096320Y462513D1*
X2093699Y456514D1*
X2092102Y450168D1*
X2091571Y443644D1*
X2092121Y437122D1*
X2093736Y430780D1*
X2094307Y429232D1*
X1867978Y429228D1*
X1868702Y430887D1*
X1870299Y437234D1*
X1870831Y443757D1*
X1870281Y450280D1*
X1868665Y456622D1*
X1866028Y462613D1*
X1862440Y468087D1*
X1858000Y472896D1*
X1852829Y476908D1*
X1847068Y480016D1*
X1840874Y482133D1*
X1834417Y483199D1*
X1827871Y483190D1*
X1821417Y482104D1*
X1815230Y479970D1*
X1809478Y476846D1*
X1804319Y472819D1*
X1799892Y467997D1*
X1796320Y462513D1*
X1793696Y456504D1*
X1793665Y456622D1*
X1791028Y462613D1*
X1787440Y468087D1*
X1783000Y472896D1*
X1777829Y476908D1*
X1772068Y480016D1*
X1765874Y482133D1*
X1759417Y483199D1*
X1752871Y483190D1*
X1746417Y482104D1*
X1740230Y479970D1*
X1734478Y476846D1*
X1729319Y472819D1*
X1724892Y467997D1*
X1721320Y462513D1*
X1718699Y456514D1*
X1717102Y450168D1*
X1716571Y443644D1*
X1717121Y437122D1*
X1718736Y430780D1*
X1719312Y429232D1*
X869373Y429231D1*
X543948Y496773D1*
X543946Y533320D1*
X544828Y532192D1*
X546244Y530554D1*
X547738Y528987D1*
X549307Y527495D1*
X550948Y526083D1*
X552656Y524752D1*
X554427Y523505D1*
X556256Y522349D1*
X558140Y521282D1*
X560075Y520310D1*
X562055Y519433D1*
X564075Y518655D1*
X566131Y517976D1*
X568218Y517399D1*
X570331Y516925D1*
X572465Y516555D1*
X574613Y516291D1*
X576773Y516131D1*
X578937Y516079D1*
X608606D1*
X610772Y516139D1*
X612930Y516304D1*
X615077Y516576D1*
X617210Y516953D1*
X619322Y517434D1*
X621407Y518017D1*
X623461Y518703D1*
X625478Y519488D1*
X627455Y520370D1*
X629386Y521349D1*
X631268Y522421D1*
X633093Y523585D1*
X634860Y524836D1*
X636564Y526173D1*
X638199Y527591D1*
X639764Y529088D1*
X641253Y530659D1*
X642664Y532302D1*
X643992Y534012D1*
X645235Y535785D1*
X646388Y537617D1*
X647451Y539503D1*
X648421Y541438D1*
X649295Y543420D1*
X650070Y545442D1*
X650745Y547499D1*
X651319Y549587D1*
X651789Y551699D1*
X652156Y553833D1*
X652417Y555983D1*
X652572Y558143D1*
X652622Y560307D1*
X652566Y562471D1*
X652403Y564631D1*
X652135Y566780D1*
X651761Y568912D1*
X651285Y571024D1*
X650703Y573110D1*
X650022Y575165D1*
X649240Y577184D1*
X648361Y579163D1*
X647385Y581094D1*
X646316Y582978D1*
X645155Y584806D1*
X643907Y586575D1*
X642573Y588281D1*
X641157Y589919D1*
X639664Y591486D1*
X638094Y592978D1*
X636454Y594390D1*
X634745Y595720D1*
X632975Y596967D1*
X631146Y598123D1*
X629261Y599190D1*
X627327Y600163D1*
X625346Y601039D1*
X623327Y601818D1*
X621270Y602496D1*
X619184Y603073D1*
X617071Y603547D1*
X614937Y603917D1*
X612789Y604181D1*
X610629Y604341D1*
X608465Y604394D1*
X578795D1*
X576630Y604333D1*
X574471Y604168D1*
X572324Y603896D1*
X570192Y603520D1*
X568080Y603038D1*
X565995Y602455D1*
X563941Y601769D1*
X561924Y600984D1*
X559946Y600102D1*
X558016Y599123D1*
X556134Y598051D1*
X554308Y596887D1*
X552542Y595636D1*
X550837Y594299D1*
X549202Y592882D1*
X547638Y591385D1*
X546148Y589814D1*
X544738Y588171D1*
X543948Y587172D1*
X543946Y616079D1*
X652622D1*
Y704394D1*
X543948Y704392D1*
X543951Y717505D1*
X881902Y791240D1*
X2753987D1*
X2753370Y790665D1*
X2751871Y789102D1*
X2750459Y787462D1*
X2749139Y785745D1*
X2747915Y783959D1*
X2746790Y782110D1*
X2745768Y780202D1*
X2744852Y778240D1*
X2744043Y776231D1*
X2743346Y774182D1*
X2742762Y772097D1*
X2742293Y769984D1*
X2741940Y767848D1*
X2741703Y765696D1*
X2741585Y763534D1*
Y761369D1*
X2741703Y759207D1*
X2741940Y757055D1*
X2742293Y754920D1*
X2742762Y752806D1*
X2743346Y750722D1*
X2744043Y748672D1*
X2744852Y746663D1*
X2745768Y744702D1*
X2746790Y742793D1*
X2747915Y740944D1*
X2749139Y739157D1*
X2750459Y737441D1*
X2751871Y735801D1*
X2753370Y734239D1*
X2754953Y732761D1*
X2756613Y731371D1*
X2758346Y730075D1*
X2760150Y728875D1*
X2762014Y727776D1*
X2763936Y726780D1*
X2765909Y725890D1*
X2767929Y725110D1*
X2769988Y724441D1*
X2772081Y723885D1*
X2774201Y723445D1*
X2776341Y723121D1*
X2778496Y722913D1*
X2780659Y722825D1*
X2782824Y722854D1*
X2784984Y723003D1*
X2787133Y723268D1*
X2789264Y723651D1*
X2791370Y724148D1*
X2793448Y724761D1*
X2795487Y725486D1*
X2797484Y726322D1*
X2799433Y727265D1*
X2801327Y728312D1*
X2803161Y729463D1*
X2804930Y730711D1*
X2806629Y732054D1*
X2808251Y733488D1*
X2809791Y735009D1*
X2811248Y736612D1*
X2812614Y738290D1*
X2813886Y740042D1*
X2815062Y741861D1*
X2816135Y743740D1*
X2817105Y745676D1*
X2817967Y747661D1*
X2818720Y749692D1*
X2819361Y751760D1*
X2819888Y753860D1*
X2820299Y755984D1*
X2820594Y758130D1*
X2820772Y760287D1*
X2820831Y762451D1*
X2820772Y764615D1*
X2820594Y766773D1*
X2820299Y768919D1*
X2819888Y771043D1*
X2819361Y773143D1*
X2818720Y775211D1*
X2817967Y777241D1*
X2817105Y779227D1*
X2816135Y781163D1*
X2815062Y783042D1*
X2813886Y784861D1*
X2812614Y786613D1*
X2811248Y788291D1*
X2809791Y789894D1*
X2808437Y791240D1*
X3927207Y791243D1*
X3926625Y790484D1*
X3923318Y784896D1*
X3923227Y784709D1*
X3472756D1*
X3466575Y783920D1*
X3460577Y781475D1*
X3455432Y777541D1*
X3368798Y690909D1*
X3364827Y690912D1*
Y712563D1*
X3272575D1*
X3272579Y690909D1*
X2251210Y690906D1*
X2255206Y695173D1*
X2258921Y700421D1*
X2261886Y706126D1*
X2264047Y712182D1*
X2265364Y718476D1*
X2265811Y724951D1*
X2265381Y731306D1*
X2264080Y737602D1*
X2261936Y743664D1*
X2258984Y749377D1*
X2255283Y754635D1*
X2250900Y759340D1*
X2245919Y763404D1*
X2240429Y766752D1*
X2234534Y769322D1*
X2228345Y771064D1*
X2221976Y771948D1*
X2215547Y771955D1*
X2209176Y771089D1*
X2203159Y769423D1*
X2199940Y774336D1*
X2195500Y779146D1*
X2190329Y783157D1*
X2184568Y786265D1*
X2178374Y788382D1*
X2171917Y789449D1*
X2165371Y789440D1*
X2158917Y788353D1*
X2152730Y786219D1*
X2146978Y783096D1*
X2141819Y779068D1*
X2137392Y774247D1*
X2133820Y768762D1*
X2131199Y762764D1*
X2129602Y756417D1*
X2129071Y749894D1*
X2129457Y745314D1*
X2108562Y724423D1*
X1898881Y724425D1*
X1900009Y725654D1*
X1903581Y731138D1*
X1906202Y737136D1*
X1907799Y743483D1*
X1908331Y750007D1*
X1907781Y756529D1*
X1906165Y762871D1*
X1903528Y768862D1*
X1899940Y774336D1*
X1895500Y779146D1*
X1890329Y783157D1*
X1884568Y786265D1*
X1878374Y788382D1*
X1871917Y789449D1*
X1865371Y789440D1*
X1858917Y788353D1*
X1852730Y786219D1*
X1846978Y783096D1*
X1841819Y779068D1*
X1837392Y774247D1*
X1833820Y768762D1*
X1831199Y762764D1*
X1829602Y756417D1*
X1829071Y749894D1*
X1829136Y749123D1*
X1817255Y761005D1*
X1813026Y764387D1*
X1807142Y767093D1*
X1800747Y768160D1*
X1794150Y768173D1*
X1787357Y768176D1*
X1783000Y772896D1*
X1777829Y776908D1*
X1772068Y780016D1*
X1765874Y782133D1*
X1759417Y783199D1*
X1752871Y783190D1*
X1746417Y782104D1*
X1740230Y779970D1*
X1734478Y776846D1*
X1729319Y772819D1*
X1725052Y768172D1*
X1310925Y768173D1*
X1305543Y767575D1*
X1299470Y765327D1*
X1294193Y761559D1*
X1293551Y760940D1*
X1228038D1*
Y660814D1*
X1253629Y660818D1*
X1253634Y557656D1*
X1253020Y557353D1*
X1247579Y553709D1*
X1242661Y549386D1*
X1238349Y544457D1*
X1234717Y539008D1*
X1231827Y533131D1*
X1229730Y526928D1*
X1228459Y520504D1*
X1228038Y513969D1*
X1228474Y507436D1*
X1229759Y501014D1*
X1231871Y494815D1*
X1234774Y488945D1*
X1238419Y483504D1*
X1242741Y478587D1*
X1247671Y474274D1*
X1253119Y470642D1*
X1258996Y467752D1*
X1265199Y465655D1*
X1271623Y464385D1*
X1278159Y463963D1*
X1284692Y464399D1*
X1291113Y465684D1*
X1297312Y467797D1*
X1303182Y470699D1*
X1308623Y474344D1*
X1313541Y478667D1*
X1317853Y483596D1*
X1321486Y489045D1*
X1324375Y494921D1*
X1326472Y501125D1*
X1327743Y507549D1*
X1328164Y514084D1*
X1327728Y520617D1*
X1326444Y527038D1*
X1324331Y533238D1*
X1321428Y539108D1*
X1317783Y544549D1*
X1313461Y549466D1*
X1308531Y553778D1*
X1303083Y557411D1*
X1302573Y557703D1*
X1302580Y660814D1*
X1328164D1*
X1328160Y719228D1*
X1725045Y719226D1*
X1729402Y714505D1*
X1734572Y710493D1*
X1740333Y707386D1*
X1746528Y705269D1*
X1752984Y704202D1*
X1759530Y704211D1*
X1765984Y705298D1*
X1772172Y707432D1*
X1777924Y710555D1*
X1783083Y714583D1*
X1787370Y719228D1*
X1789808Y719232D1*
X1819070Y689979D1*
X1816583Y688471D1*
X1811591Y684420D1*
X1807196Y679727D1*
X1803480Y674479D1*
X1800516Y668773D1*
X1798354Y662718D1*
X1797038Y656424D1*
X1796591Y650009D1*
X1797021Y643594D1*
X1798322Y637298D1*
X1800466Y631236D1*
X1803417Y625524D1*
X1807118Y620265D1*
X1811501Y615560D1*
X1816483Y611496D1*
X1821972Y608148D1*
X1827867Y605579D1*
X1834056Y603836D1*
X1840425Y602953D1*
X1846854Y602944D1*
X1853226Y603811D1*
X1859420Y605538D1*
X1865320Y608092D1*
X1870819Y611425D1*
X1875811Y615476D1*
X1880206Y620171D1*
X1883921Y625419D1*
X1886886Y631123D1*
X1889047Y637180D1*
X1890364Y643472D1*
X1890811Y649949D1*
X1890381Y656303D1*
X1889080Y662600D1*
X1886936Y668661D1*
X1883984Y674374D1*
X1883207Y675478D1*
X2004104Y675476D1*
X2002995Y673669D1*
X2001950Y671778D1*
X2000993Y669841D1*
X2000127Y667862D1*
X1999352Y665845D1*
X1998669Y663795D1*
X1998083Y661717D1*
X1997592Y659613D1*
X1997197Y657488D1*
X1996900Y655349D1*
X1996702Y653197D1*
X1996604Y651039D1*
X1996602Y648879D1*
X1996702Y646720D1*
X1996899Y644570D1*
X1997196Y642429D1*
X1997589Y640306D1*
X1998080Y638201D1*
X1998667Y636122D1*
X1999349Y634072D1*
X2000123Y632055D1*
X2000990Y630076D1*
X2001946Y628139D1*
X2002990Y626248D1*
X2004119Y624406D1*
X2005332Y622618D1*
X2006626Y620888D1*
X2007997Y619219D1*
X2009445Y617614D1*
X2010963Y616077D1*
X2012551Y614613D1*
X2014203Y613222D1*
X2015919Y611908D1*
X2017693Y610675D1*
X2019521Y609524D1*
X2021400Y608457D1*
X2023325Y607478D1*
X2025294Y606589D1*
X2027302Y605790D1*
X2029344Y605085D1*
X2031416Y604474D1*
X2033514Y603958D1*
X2035634Y603539D1*
X2037770Y603219D1*
X2039919Y602996D1*
X2042076Y602873D1*
X2044236Y602848D1*
X2046395Y602921D1*
X2048549Y603094D1*
X2050692Y603366D1*
X2052820Y603735D1*
X2054930Y604202D1*
X2057016Y604765D1*
X2059073Y605423D1*
X2061098Y606175D1*
X2063088Y607018D1*
X2065035Y607953D1*
X2066940Y608975D1*
X2068794Y610083D1*
X2070596Y611276D1*
X2072340Y612549D1*
X2074025Y613902D1*
X2075646Y615329D1*
X2077199Y616831D1*
X2078684Y618402D1*
X2080093Y620038D1*
X2081427Y621738D1*
X2082680Y623497D1*
X2083852Y625312D1*
X2084940Y627178D1*
X2085941Y629093D1*
X2086853Y631052D1*
X2087673Y633050D1*
X2088403Y635084D1*
X2089037Y637150D1*
X2089576Y639241D1*
X2090020Y641356D1*
X2090365Y643488D1*
X2090613Y645634D1*
X2090761Y647790D1*
X2090811Y649954D1*
X2090761Y652109D1*
X2090613Y654265D1*
X2090366Y656411D1*
X2090021Y658543D1*
X2089579Y660659D1*
X2089039Y662751D1*
X2088406Y664815D1*
X2087677Y666849D1*
X2086857Y668848D1*
X2085945Y670807D1*
X2084945Y672722D1*
X2083857Y674588D1*
X2083295Y675478D1*
X2118681D1*
X2124856Y676265D1*
X3396255Y649144D2*
X3482878Y735764D1*
X3923278Y735760D1*
X3923664Y734912D1*
X3927049Y729371D1*
X3931072Y724277D1*
X3935678Y719702D1*
X3940802Y715714D1*
X3946365Y712369D1*
X3951012Y710219D1*
X3945705Y707753D1*
X3940188Y704331D1*
X3935121Y700272D1*
X3930577Y695634D1*
X3926625Y690484D1*
X3923318Y684896D1*
X3920706Y678954D1*
X3918825Y672740D1*
X3917705Y666345D1*
X3917360Y659862D1*
X3917795Y653385D1*
X3919004Y647007D1*
X3920970Y640819D1*
X3923664Y634912D1*
X3927049Y629371D1*
X3931072Y624277D1*
X3935678Y619702D1*
X3940802Y615714D1*
X3946365Y612369D1*
X3951012Y610219D1*
X3945705Y607753D1*
X3940188Y604331D1*
X3935121Y600272D1*
X3930577Y595634D1*
X3926625Y590484D1*
X3923318Y584896D1*
X3920706Y578954D1*
X3918825Y572740D1*
X3917705Y566345D1*
X3917360Y559862D1*
X3917795Y553385D1*
X3919004Y547007D1*
X3920970Y540819D1*
X3923664Y534912D1*
X3927049Y529371D1*
X3931072Y524277D1*
X3935678Y519702D1*
X3940802Y515714D1*
X3946365Y512369D1*
X3951012Y510219D1*
X3945705Y507753D1*
X3940188Y504331D1*
X3935121Y500272D1*
X3930577Y495634D1*
X3926625Y490484D1*
X3923318Y484896D1*
X3920706Y478954D1*
X3918825Y472740D1*
X3917705Y466345D1*
X3917360Y459862D1*
X3917795Y453385D1*
X3919004Y447007D1*
X3920970Y440819D1*
X3923664Y434912D1*
X3927148Y429232D1*
X2802783Y429230D1*
X2802924Y429306D1*
X2808083Y433333D1*
X2812509Y438155D1*
X2816081Y443639D1*
X2818702Y449638D1*
X2820299Y455984D1*
X2820831Y462508D1*
X2820281Y469030D1*
X2818665Y475373D1*
X2816028Y481364D1*
X2812440Y486837D1*
X2808000Y491647D1*
X2802829Y495659D1*
X2797068Y498766D1*
X2790874Y500883D1*
X2784417Y501950D1*
X2777871Y501941D1*
X2771417Y500854D1*
X2765230Y498720D1*
X2759478Y495597D1*
X2754319Y491570D1*
X2750035Y486924D1*
X2246487Y486923D1*
X2247340Y487546D1*
X2249025Y488899D1*
X2250646Y490327D1*
X2252199Y491828D1*
X2253684Y493398D1*
X2255093Y495035D1*
X2256427Y496735D1*
X2257680Y498495D1*
X2258852Y500310D1*
X2259940Y502176D1*
X2260941Y504091D1*
X2261853Y506049D1*
X2262673Y508047D1*
X2263403Y510081D1*
X2264037Y512146D1*
X2264576Y514239D1*
X2265020Y516353D1*
X2265365Y518486D1*
X2265613Y520631D1*
X2265761Y522787D1*
X2265811Y524951D1*
X2265761Y527106D1*
X2265613Y529262D1*
X2265366Y531408D1*
X2265021Y533541D1*
X2264579Y535655D1*
X2264039Y537748D1*
X2263406Y539812D1*
X2262677Y541846D1*
X2261857Y543845D1*
X2260945Y545803D1*
X2259945Y547719D1*
X2258857Y549585D1*
X2257685Y551400D1*
X2256432Y553160D1*
X2255100Y554861D1*
X2253689Y556497D1*
X2252206Y558068D1*
X2250654Y559570D1*
X2249033Y560999D1*
X2247348Y562350D1*
X2245602Y563625D1*
X2243802Y564818D1*
X2241948Y565927D1*
X2240045Y566949D1*
X2238097Y567883D1*
X2236108Y568728D1*
X2234083Y569480D1*
X2232025Y570138D1*
X2229940Y570702D1*
X2227829Y571169D1*
X2225702Y571538D1*
X2223558Y571811D1*
X2221404Y571984D1*
X2219245Y572059D1*
X2217085Y572034D1*
X2214929Y571911D1*
X2212780Y571688D1*
X2210643Y571367D1*
X2208524Y570949D1*
X2206425Y570434D1*
X2204353Y569824D1*
X2202311Y569118D1*
X2200303Y568320D1*
X2198335Y567432D1*
X2196408Y566453D1*
X2194529Y565387D1*
X2192701Y564238D1*
X2190927Y563004D1*
X2189211Y561690D1*
X2187558Y560299D1*
X2185970Y558835D1*
X2184451Y557298D1*
X2183004Y555694D1*
X2181633Y554025D1*
X2180673Y552757D1*
X2180677Y596068D1*
X2226570Y641965D1*
X3272575Y641962D1*
Y620311D1*
X3364827D1*
X3364825Y641965D1*
X3378937D1*
X3384319Y642563D1*
X3390394Y644811D1*
X3395669Y648579D1*
X3396255Y649144D1*
X3364776Y543801D2*
X3364623Y541643D1*
X3364371Y539495D1*
X3364017Y537361D1*
X3363564Y535247D1*
X3363013Y533156D1*
X3362364Y531093D1*
X3361618Y529063D1*
X3360780Y527070D1*
X3359848Y525118D1*
X3358825Y523213D1*
X3357714Y521357D1*
X3356518Y519555D1*
X3355239Y517811D1*
X3353879Y516130D1*
X3352442Y514513D1*
X3350930Y512967D1*
X3349348Y511492D1*
X3347698Y510093D1*
X3345986Y508774D1*
X3344213Y507535D1*
X3342383Y506382D1*
X3340501Y505316D1*
X3338572Y504339D1*
X3336600Y503453D1*
X3334588Y502660D1*
X3332541Y501963D1*
X3330462Y501364D1*
X3328360Y500861D1*
X3326234Y500458D1*
X3324093Y500155D1*
X3321940Y499953D1*
X3319780Y499852D1*
X3317617D1*
X3315457Y499953D1*
X3313303Y500155D1*
X3311163Y500459D1*
X3309038Y500862D1*
X3306934Y501365D1*
X3304857Y501965D1*
X3302810Y502663D1*
X3300798Y503455D1*
X3298824Y504341D1*
X3296895Y505318D1*
X3295014Y506385D1*
X3293185Y507538D1*
X3291412Y508777D1*
X3289698Y510097D1*
X3288050Y511496D1*
X3286467Y512970D1*
X3284957Y514517D1*
X3283520Y516134D1*
X3282160Y517815D1*
X3280881Y519559D1*
X3279685Y521361D1*
X3278575Y523217D1*
X3277552Y525122D1*
X3276621Y527073D1*
X3275781Y529067D1*
X3275037Y531097D1*
X3274387Y533160D1*
X3273836Y535252D1*
X3273383Y537366D1*
X3273030Y539500D1*
X3272777Y541648D1*
X3272626Y543804D1*
X3272575Y545967D1*
X3272626Y548129D1*
X3272778Y550286D1*
X3273030Y552434D1*
X3273385Y554568D1*
X3273837Y556682D1*
X3274388Y558773D1*
X3275038Y560836D1*
X3275783Y562866D1*
X3276622Y564860D1*
X3277554Y566811D1*
X3278576Y568717D1*
X3279688Y570572D1*
X3280883Y572374D1*
X3282163Y574118D1*
X3283522Y575799D1*
X3284959Y577416D1*
X3286471Y578962D1*
X3288054Y580437D1*
X3289703Y581836D1*
X3291416Y583155D1*
X3293189Y584394D1*
X3295018Y585547D1*
X3296900Y586613D1*
X3298829Y587591D1*
X3300802Y588476D1*
X3302814Y589269D1*
X3304861Y589966D1*
X3306940Y590566D1*
X3309042Y591068D1*
X3311168Y591471D1*
X3313308Y591774D1*
X3315462Y591976D1*
X3317622Y592077D1*
X3319785D1*
X3321945Y591976D1*
X3324098Y591774D1*
X3326239Y591470D1*
X3328364Y591067D1*
X3330467Y590564D1*
X3332545Y589965D1*
X3334592Y589266D1*
X3336604Y588474D1*
X3338577Y587588D1*
X3340507Y586612D1*
X3342387Y585545D1*
X3344217Y584391D1*
X3345990Y583152D1*
X3347703Y581832D1*
X3349352Y580433D1*
X3350934Y578959D1*
X3352445Y577412D1*
X3353882Y575795D1*
X3355241Y574114D1*
X3356521Y572370D1*
X3357717Y570568D1*
X3358827Y568713D1*
X3359849Y566807D1*
X3360781Y564856D1*
X3361621Y562862D1*
X3362365Y560832D1*
X3363014Y558769D1*
X3363566Y556677D1*
X3364018Y554563D1*
X3364371Y552429D1*
X3364625Y550281D1*
X3364776Y548125D1*
X3364827Y545965D1*
X3364776Y543801D1*
X1721444Y605974D2*
X1720173Y599550D1*
X1718076Y593346D1*
X1715186Y587470D1*
X1711554Y582021D1*
X1707241Y577092D1*
X1702324Y572769D1*
X1696883Y569125D1*
X1691013Y566222D1*
X1684814Y564109D1*
X1678392Y562824D1*
X1671860Y562388D1*
X1665324Y562810D1*
X1658900Y564080D1*
X1652697Y566177D1*
X1646820Y569067D1*
X1641371Y572699D1*
X1636442Y577012D1*
X1632119Y581929D1*
X1628475Y587370D1*
X1625572Y593240D1*
X1623459Y599440D1*
X1622175Y605861D1*
X1621739Y612394D1*
X1622160Y618929D1*
X1623430Y625353D1*
X1625528Y631556D1*
X1628417Y637433D1*
X1632050Y642882D1*
X1636362Y647811D1*
X1641280Y652134D1*
X1646720Y655778D1*
X1652591Y658681D1*
X1658790Y660794D1*
X1665211Y662079D1*
X1671744Y662514D1*
X1678280Y662093D1*
X1684703Y660823D1*
X1690907Y658726D1*
X1696783Y655836D1*
X1702232Y652203D1*
X1707161Y647891D1*
X1711484Y642974D1*
X1715129Y637533D1*
X1718031Y631663D1*
X1720144Y625463D1*
X1721429Y619042D1*
X1721865Y612451D1*
X1721444Y605974D1*
X1061354Y788497D2*
X1155378D1*
Y692308D1*
X1059189D1*
Y788497D1*
X1061354D1*
X977774Y733927D2*
X976486Y727633D1*
X974370Y721566D1*
X971465Y715836D1*
X967822Y710545D1*
X963505Y705785D1*
X958593Y701644D1*
X953173Y698194D1*
X947341Y695499D1*
X941202Y693604D1*
X934866Y692543D1*
X928445Y692337D1*
X922052Y692990D1*
X915806Y694487D1*
X909814Y696804D1*
X904184Y699900D1*
X899016Y703718D1*
X894404Y708192D1*
X890429Y713239D1*
X887163Y718772D1*
X884663Y724689D1*
X882974Y730888D1*
X882126Y737257D1*
X882135Y743681D1*
X883001Y750047D1*
X884706Y756241D1*
X887223Y762154D1*
X890505Y767677D1*
X894493Y772714D1*
X899118Y777173D1*
X904295Y780978D1*
X909934Y784056D1*
X915933Y786358D1*
X922184Y787839D1*
X928577Y788472D1*
X934999Y788249D1*
X941332Y787172D1*
X947466Y785260D1*
X953290Y782547D1*
X958701Y779083D1*
X963601Y774928D1*
X967904Y770157D1*
X971533Y764856D1*
X974423Y759117D1*
X976521Y753045D1*
X977793Y746747D1*
X978213Y740403D1*
X977774Y733927D1*
Y478021D2*
X976486Y471727D1*
X974370Y465660D1*
X971465Y459930D1*
X967822Y454639D1*
X963505Y449879D1*
X958593Y445739D1*
X953173Y442289D1*
X947341Y439593D1*
X941202Y437698D1*
X934866Y436638D1*
X928445Y436432D1*
X922052Y437084D1*
X915806Y438581D1*
X909814Y440899D1*
X904184Y443995D1*
X899016Y447812D1*
X894404Y452286D1*
X890429Y457333D1*
X887163Y462866D1*
X884663Y468783D1*
X882974Y474983D1*
X882126Y481352D1*
X882135Y487776D1*
X883001Y494142D1*
X884706Y500336D1*
X887223Y506248D1*
X890505Y511772D1*
X894493Y516808D1*
X899118Y521268D1*
X904295Y525072D1*
X909934Y528151D1*
X915933Y530453D1*
X922184Y531933D1*
X928577Y532567D1*
X934999Y532344D1*
X941332Y531266D1*
X947466Y529354D1*
X953290Y526642D1*
X958701Y523177D1*
X963601Y519022D1*
X967904Y514252D1*
X971533Y508950D1*
X974423Y503211D1*
X976521Y497139D1*
X977793Y490841D1*
X978213Y484497D1*
X977774Y478021D1*
X1155329Y482333D2*
X1155184Y480180D1*
X1154942Y478034D1*
X1154604Y475903D1*
X1154171Y473789D1*
X1153643Y471696D1*
X1153022Y469629D1*
X1152308Y467592D1*
X1151505Y465589D1*
X1150612Y463623D1*
X1149633Y461701D1*
X1148567Y459824D1*
X1147419Y457996D1*
X1146189Y456223D1*
X1144881Y454505D1*
X1143497Y452849D1*
X1142041Y451256D1*
X1140514Y449730D1*
X1138921Y448274D1*
X1137265Y446891D1*
X1135547Y445584D1*
X1133773Y444356D1*
X1131945Y443207D1*
X1130068Y442142D1*
X1128144Y441163D1*
X1126180Y440270D1*
X1124176Y439467D1*
X1122139Y438755D1*
X1120072Y438134D1*
X1117979Y437608D1*
X1115865Y437175D1*
X1113732Y436837D1*
X1111588Y436596D1*
X1109434Y436451D1*
X1107277Y436403D1*
X1105119Y436451D1*
X1102966Y436597D1*
X1100820Y436839D1*
X1098689Y437177D1*
X1096575Y437610D1*
X1094482Y438138D1*
X1092415Y438759D1*
X1090378Y439472D1*
X1088375Y440276D1*
X1086409Y441169D1*
X1084487Y442148D1*
X1082610Y443214D1*
X1080782Y444362D1*
X1079009Y445592D1*
X1077291Y446900D1*
X1075635Y448283D1*
X1074042Y449740D1*
X1072516Y451266D1*
X1071060Y452860D1*
X1069677Y454516D1*
X1068370Y456234D1*
X1067142Y458008D1*
X1065993Y459836D1*
X1064928Y461713D1*
X1063949Y463636D1*
X1063056Y465601D1*
X1062253Y467605D1*
X1061541Y469642D1*
X1060920Y471709D1*
X1060394Y473802D1*
X1059961Y475916D1*
X1059623Y478049D1*
X1059382Y480193D1*
X1059238Y482346D1*
X1059189Y484504D1*
X1059238Y486661D1*
X1059383Y488815D1*
X1059625Y490961D1*
X1059963Y493092D1*
X1060396Y495206D1*
X1060924Y497299D1*
X1061545Y499366D1*
X1062259Y501403D1*
X1063062Y503406D1*
X1063955Y505371D1*
X1064934Y507294D1*
X1066000Y509171D1*
X1067148Y510999D1*
X1068378Y512772D1*
X1069686Y514490D1*
X1071070Y516146D1*
X1072526Y517739D1*
X1074052Y519265D1*
X1075646Y520720D1*
X1077302Y522104D1*
X1079020Y523411D1*
X1080794Y524639D1*
X1082622Y525787D1*
X1084499Y526853D1*
X1086423Y527832D1*
X1088387Y528724D1*
X1090391Y529528D1*
X1092428Y530240D1*
X1094495Y530861D1*
X1096588Y531387D1*
X1098702Y531820D1*
X1100835Y532157D1*
X1102979Y532399D1*
X1105133Y532543D1*
X1107290Y532592D1*
X1109448Y532543D1*
X1111601Y532398D1*
X1113747Y532156D1*
X1115878Y531818D1*
X1117992Y531385D1*
X1120085Y530857D1*
X1122152Y530236D1*
X1124189Y529522D1*
X1126192Y528719D1*
X1128157Y527825D1*
X1130080Y526846D1*
X1131957Y525781D1*
X1133785Y524633D1*
X1135558Y523403D1*
X1137276Y522094D1*
X1138932Y520711D1*
X1140525Y519255D1*
X1142051Y517728D1*
X1143507Y516135D1*
X1144890Y514479D1*
X1146197Y512761D1*
X1147425Y510987D1*
X1148573Y509159D1*
X1149639Y507282D1*
X1150618Y505358D1*
X1151510Y503394D1*
X1152314Y501390D1*
X1153026Y499353D1*
X1153647Y497286D1*
X1154173Y495193D1*
X1154606Y493079D1*
X1154944Y490946D1*
X1155185Y488802D1*
X1155329Y486648D1*
X1155378Y484497D1*
X1155329Y482333D1*
X2043701Y649954D2*
X2043702Y602870D1*
X1996615Y649953D2*
X2090786Y649955D1*
X2265786Y524951D2*
X2218701D1*
Y572037D2*
Y524951D1*
X3272600Y545965D2*
X3364802D1*
X3318701Y499864D2*
Y592066D1*
X3917382Y660236D2*
X3981201D1*
X593701Y560236D2*
X652601D1*
X593701Y516054D2*
Y604419D1*
X2820806Y762451D2*
X2741596D1*
X2781201D2*
Y722846D1*
X1107283Y788472D2*
Y692333D1*
X1059214Y740403D2*
X1155353D1*
X1107283Y532567D2*
Y436428D1*
X1059214Y484497D2*
X1155353D1*
D20*
X1893701Y537451D3*
X2093701D3*
X1843701Y649949D3*
X2043701Y649954D3*
X2218701Y724951D3*
Y524951D3*
D21*
X3318701Y545965D3*
D22*
Y666437D3*
D23*
X3981201Y760236D3*
Y660236D3*
Y560236D3*
Y460236D3*
D24*
X593701Y660236D3*
D25*
Y560236D3*
D26*
X1278101Y710877D3*
D27*
X1671802Y612451D3*
X1278101Y514026D3*
D28*
X1756201Y743701D3*
D29*
Y443701D3*
D28*
X1831201D3*
D29*
X2131201D3*
D28*
X2168701Y749950D3*
D29*
X1868701D3*
D28*
X2781201Y462451D3*
D29*
Y762451D3*
D30*
X1107283Y740403D3*
D31*
X930118D3*
Y484497D3*
X1107283D3*
M02*
