G04 DipTrace 4.3.0.5*
G04 BottomSilk.gbr*
%MOIN*%
G04 #@! TF.FileFunction,Legend,Bot*
G04 #@! TF.Part,Single*
%ADD62C,0.006176*%
%ADD63C,0.004632*%
%ADD64C,0.003088*%
%FSLAX26Y26*%
G04*
G70*
G90*
G75*
G01*
G04 BotSilk*
%LPD*%
X3050108Y718368D2*
D62*
X3052009Y722171D1*
X3055856Y726017D1*
X3059658Y727919D1*
X3067308D1*
X3071154Y726017D1*
X3074957Y722171D1*
X3076903Y718368D1*
X3078804Y712620D1*
Y703025D1*
X3076903Y697321D1*
X3074957Y693475D1*
X3071154Y689672D1*
X3067308Y687727D1*
X3059658D1*
X3055856Y689672D1*
X3052009Y693475D1*
X3050108Y697321D1*
X3028206Y714521D2*
X3032008Y712620D1*
X3035855Y708773D1*
X3037756Y703025D1*
Y699223D1*
X3035855Y693475D1*
X3032008Y689672D1*
X3028206Y687727D1*
X3022458D1*
X3018611Y689672D1*
X3014809Y693475D1*
X3012863Y699223D1*
Y703025D1*
X3014809Y708773D1*
X3018611Y712620D1*
X3022458Y714521D1*
X3028206D1*
X3000512D2*
Y687727D1*
Y706872D2*
X2994764Y712620D1*
X2990917Y714521D1*
X2985213D1*
X2981366Y712620D1*
X2979465Y706872D1*
Y687727D1*
Y706872D2*
X2973717Y712620D1*
X2969870Y714521D1*
X2964166D1*
X2960320Y712620D1*
X2958374Y706872D1*
Y687727D1*
X2946023Y714521D2*
Y674329D1*
Y708773D2*
X2942176Y712576D1*
X2938373Y714521D1*
X2932625D1*
X2928779Y712576D1*
X2924976Y708773D1*
X2923031Y703025D1*
Y699178D1*
X2924976Y693475D1*
X2928779Y689628D1*
X2932625Y687727D1*
X2938373D1*
X2942176Y689628D1*
X2946023Y693475D1*
X2910679Y714521D2*
Y695376D1*
X2908778Y689672D1*
X2904931Y687727D1*
X2899183D1*
X2895381Y689672D1*
X2889633Y695376D1*
Y714521D2*
Y687727D1*
X2871533Y727919D2*
Y695376D1*
X2869632Y689672D1*
X2865785Y687727D1*
X2861983D1*
X2877281Y714521D2*
X2863884D1*
X2849631Y703025D2*
X2826683D1*
Y706872D1*
X2828585Y710719D1*
X2830486Y712620D1*
X2834333Y714521D1*
X2840081D1*
X2843883Y712620D1*
X2847730Y708773D1*
X2849631Y703025D1*
Y699223D1*
X2847730Y693475D1*
X2843883Y689672D1*
X2840081Y687727D1*
X2834333D1*
X2830486Y689672D1*
X2826683Y693475D1*
X2814332Y714521D2*
Y687727D1*
Y703025D2*
X2812386Y708773D1*
X2808584Y712620D1*
X2804737Y714521D1*
X2798989D1*
X2747757Y727919D2*
Y687727D1*
X2724809D1*
X2712458Y727919D2*
X2710556Y726017D1*
X2708611Y727919D1*
X2710556Y729864D1*
X2712458Y727919D1*
X2710556Y714521D2*
Y687727D1*
X2673312Y712620D2*
Y681979D1*
X2675213Y676275D1*
X2677114Y674329D1*
X2680961Y672428D1*
X2686709D1*
X2690511Y674329D1*
X2673312Y706872D2*
X2677114Y710675D1*
X2680961Y712620D1*
X2686709D1*
X2690511Y710675D1*
X2694358Y706872D1*
X2696259Y701124D1*
Y697277D1*
X2694358Y691573D1*
X2690511Y687727D1*
X2686709Y685825D1*
X2680961D1*
X2677114Y687727D1*
X2673312Y691573D1*
X2660960Y727919D2*
Y687727D1*
Y706872D2*
X2655212Y712620D1*
X2651365Y714521D1*
X2645617D1*
X2641815Y712620D1*
X2639913Y706872D1*
Y687727D1*
X2621814Y727919D2*
Y695376D1*
X2619913Y689672D1*
X2616066Y687727D1*
X2612263D1*
X2627562Y714521D2*
X2614165D1*
X2561031Y706872D2*
X2543787D1*
X2538083Y708773D1*
X2536138Y710719D1*
X2534237Y714521D1*
Y720269D1*
X2536138Y724072D1*
X2538083Y726017D1*
X2543787Y727919D1*
X2561031D1*
Y687727D1*
X2521885Y703025D2*
X2498937D1*
Y706872D1*
X2500839Y710719D1*
X2502740Y712620D1*
X2506587Y714521D1*
X2512335D1*
X2516137Y712620D1*
X2519984Y708773D1*
X2521885Y703025D1*
Y699223D1*
X2519984Y693475D1*
X2516137Y689672D1*
X2512335Y687727D1*
X2506587D1*
X2502740Y689672D1*
X2498937Y693475D1*
X2486586Y714521D2*
Y687727D1*
Y706872D2*
X2480838Y712620D1*
X2476991Y714521D1*
X2471287D1*
X2467441Y712620D1*
X2465539Y706872D1*
Y687727D1*
X3147406Y636649D2*
D63*
X3148832Y639501D1*
X3151717Y642386D1*
X3154569Y643812D1*
X3160306D1*
X3163191Y642386D1*
X3166043Y639501D1*
X3167502Y636649D1*
X3168928Y632338D1*
Y625142D1*
X3167502Y620864D1*
X3166043Y617979D1*
X3163191Y615127D1*
X3160306Y613668D1*
X3154569D1*
X3151717Y615127D1*
X3148832Y617979D1*
X3147406Y620864D1*
X3130979Y633764D2*
X3133831Y632338D1*
X3136716Y629453D1*
X3138142Y625142D1*
Y622290D1*
X3136716Y617979D1*
X3133831Y615127D1*
X3130979Y613668D1*
X3126668D1*
X3123783Y615127D1*
X3120931Y617979D1*
X3119472Y622290D1*
Y625142D1*
X3120931Y629453D1*
X3123783Y632338D1*
X3126668Y633764D1*
X3130979D1*
X3110209D2*
Y603620D1*
Y629453D2*
X3107323Y632305D1*
X3104472Y633764D1*
X3100161D1*
X3097275Y632305D1*
X3094424Y629453D1*
X3092964Y625142D1*
Y622257D1*
X3094424Y617979D1*
X3097275Y615094D1*
X3100161Y613668D1*
X3104472D1*
X3107323Y615094D1*
X3110209Y617979D1*
X3082242Y633764D2*
X3073653Y613668D1*
X3076505Y607931D1*
X3079390Y605046D1*
X3082242Y603620D1*
X3083701D1*
X3065031Y633764D2*
X3073653Y613668D1*
X3055767Y633764D2*
Y613668D1*
Y625142D2*
X3054308Y629453D1*
X3051456Y632338D1*
X3048571Y633764D1*
X3044260D1*
X3034997Y643812D2*
X3033571Y642386D1*
X3032112Y643812D1*
X3033571Y645271D1*
X3034997Y643812D1*
X3033571Y633764D2*
Y613668D1*
X3005637Y632338D2*
Y609357D1*
X3007063Y605079D1*
X3008489Y603620D1*
X3011374Y602194D1*
X3015685D1*
X3018537Y603620D1*
X3005637Y628027D2*
X3008489Y630879D1*
X3011374Y632338D1*
X3015685D1*
X3018537Y630879D1*
X3021422Y628027D1*
X3022848Y623716D1*
Y620831D1*
X3021422Y616553D1*
X3018537Y613668D1*
X3015685Y612242D1*
X3011374D1*
X3008489Y613668D1*
X3005637Y616553D1*
X2996374Y643812D2*
Y613668D1*
Y628027D2*
X2992063Y632338D1*
X2989177Y633764D1*
X2984866D1*
X2982015Y632338D1*
X2980589Y628027D1*
Y613668D1*
X2967014Y643812D2*
Y619405D1*
X2965588Y615127D1*
X2962703Y613668D1*
X2959851D1*
X2971325Y633764D2*
X2961277D1*
X2911379Y651671D2*
X2914264Y648819D1*
X2917116Y644508D1*
X2920001Y638771D1*
X2921427Y631575D1*
Y625838D1*
X2920001Y618675D1*
X2917116Y612938D1*
X2914264Y608627D1*
X2911379Y605775D1*
X2884871Y629453D2*
X2887756Y632338D1*
X2890641Y633764D1*
X2894919D1*
X2897804Y632338D1*
X2900656Y629453D1*
X2902115Y625142D1*
Y622290D1*
X2900656Y617979D1*
X2897804Y615127D1*
X2894919Y613668D1*
X2890641D1*
X2887756Y615127D1*
X2884871Y617979D1*
X2875608Y651671D2*
X2872723Y648819D1*
X2869871Y644508D1*
X2866986Y638771D1*
X2865560Y631575D1*
Y625838D1*
X2866986Y618675D1*
X2869871Y612938D1*
X2872723Y608627D1*
X2875608Y605775D1*
X2804155Y613668D2*
X2815662Y643812D1*
X2827136Y613668D1*
X2822825Y623716D2*
X2808466D1*
X2794891Y643812D2*
Y613668D1*
X2784168Y633764D2*
X2775579Y613668D1*
X2778431Y607931D1*
X2781316Y605046D1*
X2784168Y603620D1*
X2785627D1*
X2766957Y633764D2*
X2775579Y613668D1*
X2741909Y629453D2*
X2743335Y632338D1*
X2747646Y633764D1*
X2751957D1*
X2756268Y632338D1*
X2757694Y629453D1*
X2756268Y626601D1*
X2753383Y625142D1*
X2746220Y623716D1*
X2743335Y622290D1*
X2741909Y619405D1*
Y617979D1*
X2743335Y615127D1*
X2747646Y613668D1*
X2751957D1*
X2756268Y615127D1*
X2757694Y617979D1*
X2716860Y629453D2*
X2718286Y632338D1*
X2722597Y633764D1*
X2726908D1*
X2731219Y632338D1*
X2732645Y629453D1*
X2731219Y626601D1*
X2728334Y625142D1*
X2721171Y623716D1*
X2718286Y622290D1*
X2716860Y619405D1*
Y617979D1*
X2718286Y615127D1*
X2722597Y613668D1*
X2726908D1*
X2731219Y615127D1*
X2732645Y617979D1*
X2700434Y633764D2*
X2703286Y632338D1*
X2706171Y629453D1*
X2707597Y625142D1*
Y622290D1*
X2706171Y617979D1*
X2703286Y615127D1*
X2700434Y613668D1*
X2696123D1*
X2693238Y615127D1*
X2690386Y617979D1*
X2688927Y622290D1*
Y625142D1*
X2690386Y629453D1*
X2693238Y632338D1*
X2696123Y633764D1*
X2700434D1*
X2679663D2*
Y613668D1*
Y628027D2*
X2675352Y632338D1*
X2672467Y633764D1*
X2668189D1*
X2665304Y632338D1*
X2663878Y628027D1*
Y613668D1*
X2625454Y629453D2*
X2612554D1*
X2608243Y630912D1*
X2606784Y632338D1*
X2605358Y635190D1*
Y638075D1*
X2606784Y640927D1*
X2608243Y642386D1*
X2612554Y643812D1*
X2625454D1*
Y613668D1*
X2615406Y629453D2*
X2605358Y613668D1*
X2588932Y633764D2*
X2591784Y632338D1*
X2594669Y629453D1*
X2596095Y625142D1*
Y622290D1*
X2594669Y617979D1*
X2591784Y615127D1*
X2588932Y613668D1*
X2584621D1*
X2581736Y615127D1*
X2578884Y617979D1*
X2577424Y622290D1*
Y625142D1*
X2578884Y629453D1*
X2581736Y632338D1*
X2584621Y633764D1*
X2588932D1*
X2568161D2*
X2562424Y613668D1*
X2556687Y633764D1*
X2550950Y613668D1*
X2545213Y633764D1*
X2518739D2*
Y613668D1*
Y629453D2*
X2521590Y632338D1*
X2524476Y633764D1*
X2528753D1*
X2531638Y632338D1*
X2534490Y629453D1*
X2535949Y625142D1*
Y622290D1*
X2534490Y617979D1*
X2531638Y615127D1*
X2528753Y613668D1*
X2524476D1*
X2521590Y615127D1*
X2518739Y617979D1*
X2509475Y633764D2*
Y613668D1*
Y628027D2*
X2505164Y632338D1*
X2502279Y633764D1*
X2498001D1*
X2495116Y632338D1*
X2493690Y628027D1*
Y613668D1*
X2481541Y615094D2*
X2483001Y613668D1*
X2484426Y615094D1*
X2483001Y616553D1*
X2481541Y615094D1*
Y612242D1*
X2483001Y609357D1*
X2484426Y607931D1*
X2441658Y636616D2*
Y638042D1*
X2440232Y640927D1*
X2438806Y642353D1*
X2435921Y643779D1*
X2430184D1*
X2427332Y642353D1*
X2425906Y640927D1*
X2424447Y638042D1*
Y635190D1*
X2425906Y632305D1*
X2428758Y628027D1*
X2443117Y613668D1*
X2423021D1*
X2405136Y643779D2*
X2409447Y642353D1*
X2412332Y638042D1*
X2413758Y630879D1*
Y626568D1*
X2412332Y619405D1*
X2409447Y615094D1*
X2405136Y613668D1*
X2402284D1*
X2397973Y615094D1*
X2395121Y619405D1*
X2393662Y626568D1*
Y630879D1*
X2395121Y638042D1*
X2397973Y642353D1*
X2402284Y643779D1*
X2405136D1*
X2395121Y638042D2*
X2412332Y619405D1*
X2382939Y636616D2*
Y638042D1*
X2381513Y640927D1*
X2380087Y642353D1*
X2377202Y643779D1*
X2371465D1*
X2368613Y642353D1*
X2367187Y640927D1*
X2365728Y638042D1*
Y635190D1*
X2367187Y632305D1*
X2370039Y628027D1*
X2384398Y613668D1*
X2364302D1*
X2340680D2*
Y643779D1*
X2355039Y623716D1*
X2333517D1*
X3168928Y589193D2*
X3157454Y559049D1*
X3145980Y589193D1*
X3136716Y570523D2*
X3119505D1*
Y573408D1*
X3120931Y576293D1*
X3122357Y577719D1*
X3125242Y579145D1*
X3129553D1*
X3132405Y577719D1*
X3135290Y574834D1*
X3136716Y570523D1*
Y567671D1*
X3135290Y563360D1*
X3132405Y560508D1*
X3129553Y559049D1*
X3125242D1*
X3122357Y560508D1*
X3119505Y563360D1*
X3110242Y579145D2*
Y559049D1*
Y570523D2*
X3108783Y574834D1*
X3105931Y577719D1*
X3103046Y579145D1*
X3098735D1*
X3073686Y574834D2*
X3075112Y577719D1*
X3079423Y579145D1*
X3083734D1*
X3088045Y577719D1*
X3089471Y574834D1*
X3088045Y571982D1*
X3085160Y570523D1*
X3077997Y569097D1*
X3075112Y567671D1*
X3073686Y564786D1*
Y563360D1*
X3075112Y560508D1*
X3079423Y559049D1*
X3083734D1*
X3088045Y560508D1*
X3089471Y563360D1*
X3064423Y589193D2*
X3062997Y587767D1*
X3061537Y589193D1*
X3062997Y590652D1*
X3064423Y589193D1*
X3062997Y579145D2*
Y559049D1*
X3045111Y579145D2*
X3047963Y577719D1*
X3050848Y574834D1*
X3052274Y570523D1*
Y567671D1*
X3050848Y563360D1*
X3047963Y560508D1*
X3045111Y559049D1*
X3040800D1*
X3037915Y560508D1*
X3035063Y563360D1*
X3033604Y567671D1*
Y570523D1*
X3035063Y574834D1*
X3037915Y577719D1*
X3040800Y579145D1*
X3045111D1*
X3024340D2*
Y559049D1*
Y573408D2*
X3020029Y577719D1*
X3017144Y579145D1*
X3012866D1*
X3009981Y577719D1*
X3008555Y573408D1*
Y559049D1*
X2970131Y583423D2*
X2967246Y584882D1*
X2962935Y589160D1*
Y559049D1*
X2952246Y561934D2*
X2953672Y560475D1*
X2952246Y559049D1*
X2950786Y560475D1*
X2952246Y561934D1*
X2932901Y589160D2*
X2937212Y587734D1*
X2940097Y583423D1*
X2941523Y576260D1*
Y571949D1*
X2940097Y564786D1*
X2937212Y560475D1*
X2932901Y559049D1*
X2930049D1*
X2925738Y560475D1*
X2922886Y564786D1*
X2921427Y571949D1*
Y576260D1*
X2922886Y583423D1*
X2925738Y587734D1*
X2930049Y589160D1*
X2932901D1*
X2922886Y583423D2*
X2940097Y564786D1*
X2903541Y589160D2*
X2907852Y587734D1*
X2910737Y583423D1*
X2912163Y576260D1*
Y571949D1*
X2910737Y564786D1*
X2907852Y560475D1*
X2903541Y559049D1*
X2900689D1*
X2896378Y560475D1*
X2893526Y564786D1*
X2892067Y571949D1*
Y576260D1*
X2893526Y583423D1*
X2896378Y587734D1*
X2900689Y589160D1*
X2903541D1*
X2893526Y583423D2*
X2910737Y564786D1*
X3151717Y524527D2*
Y504431D1*
Y520216D2*
X3154569Y523101D1*
X3157454Y524527D1*
X3161732D1*
X3164617Y523101D1*
X3167469Y520216D1*
X3168928Y515905D1*
Y513053D1*
X3167469Y508742D1*
X3164617Y505890D1*
X3161732Y504431D1*
X3157454D1*
X3154569Y505890D1*
X3151717Y508742D1*
X3142453Y534575D2*
Y504431D1*
X3131731Y524527D2*
X3123142Y504431D1*
X3125994Y498694D1*
X3128879Y495809D1*
X3131731Y494383D1*
X3133190D1*
X3114520Y524527D2*
X3123142Y504431D1*
X3089471Y520216D2*
X3090897Y523101D1*
X3095208Y524527D1*
X3099519D1*
X3103830Y523101D1*
X3105256Y520216D1*
X3103830Y517364D1*
X3100945Y515905D1*
X3093782Y514479D1*
X3090897Y513053D1*
X3089471Y510168D1*
Y508742D1*
X3090897Y505890D1*
X3095208Y504431D1*
X3099519D1*
X3103830Y505890D1*
X3105256Y508742D1*
X3064423Y520216D2*
X3065848Y523101D1*
X3070159Y524527D1*
X3074471D1*
X3078782Y523101D1*
X3080207Y520216D1*
X3078782Y517364D1*
X3075896Y515905D1*
X3068734Y514479D1*
X3065848Y513053D1*
X3064423Y510168D1*
Y508742D1*
X3065848Y505890D1*
X3070159Y504431D1*
X3074471D1*
X3078782Y505890D1*
X3080207Y508742D1*
X3047996Y524527D2*
X3050848Y523101D1*
X3053733Y520216D1*
X3055159Y515905D1*
Y513053D1*
X3053733Y508742D1*
X3050848Y505890D1*
X3047996Y504431D1*
X3043685D1*
X3040800Y505890D1*
X3037948Y508742D1*
X3036489Y513053D1*
Y515905D1*
X3037948Y520216D1*
X3040800Y523101D1*
X3043685Y524527D1*
X3047996D1*
X3027225D2*
Y504431D1*
Y518790D2*
X3022914Y523101D1*
X3020029Y524527D1*
X3015751D1*
X3012866Y523101D1*
X3011440Y518790D1*
Y504431D1*
X3002177Y524527D2*
Y504431D1*
Y515905D2*
X3000718Y520216D1*
X2997866Y523101D1*
X2994981Y524527D1*
X2990670D1*
X2974243D2*
X2977095Y523101D1*
X2979980Y520216D1*
X2981406Y515905D1*
Y513053D1*
X2979980Y508742D1*
X2977095Y505890D1*
X2974243Y504431D1*
X2969932D1*
X2967047Y505890D1*
X2964195Y508742D1*
X2962736Y513053D1*
Y515905D1*
X2964195Y520216D1*
X2967047Y523101D1*
X2969932Y524527D1*
X2974243D1*
X2953473D2*
X2947736Y504431D1*
X2941999Y524527D1*
X2936262Y504431D1*
X2930525Y524527D1*
X2904050D2*
Y504431D1*
Y520216D2*
X2906902Y523101D1*
X2909787Y524527D1*
X2914065D1*
X2916950Y523101D1*
X2919802Y520216D1*
X2921261Y515905D1*
Y513053D1*
X2919802Y508742D1*
X2916950Y505890D1*
X2914065Y504431D1*
X2909787D1*
X2906902Y505890D1*
X2904050Y508742D1*
X2894787Y524527D2*
Y504431D1*
Y518790D2*
X2890476Y523101D1*
X2887591Y524527D1*
X2883313D1*
X2880428Y523101D1*
X2879002Y518790D1*
Y504431D1*
X2853953Y527379D2*
X2858264D1*
X2861116Y525953D1*
X2862575Y524527D1*
X2864001Y521642D1*
Y515905D1*
X2862575Y514479D1*
X2859690D1*
X2853953Y515905D1*
X2852527Y513053D1*
X2851101D1*
X2848216Y515905D1*
X2846790Y523068D1*
X2848216Y527379D1*
X2849642Y530264D1*
X2852527Y533116D1*
X2855379Y534542D1*
X2861116D1*
X2864001Y533116D1*
X2866853Y530264D1*
X2868312Y527379D1*
X2869738Y523068D1*
Y515905D1*
X2868312Y511594D1*
X2866853Y508742D1*
X2864001Y505857D1*
X2861116Y504431D1*
X2855379D1*
X2852527Y505857D1*
X2849642Y508742D1*
X2853953Y528805D2*
Y515905D1*
X2820316Y523101D2*
Y500120D1*
X2821742Y495842D1*
X2823168Y494383D1*
X2826053Y492957D1*
X2830364D1*
X2833216Y494383D1*
X2820316Y518790D2*
X2823168Y521642D1*
X2826053Y523101D1*
X2830364D1*
X2833216Y521642D1*
X2836101Y518790D1*
X2837527Y514479D1*
Y511594D1*
X2836101Y507316D1*
X2833216Y504431D1*
X2830364Y503005D1*
X2826053D1*
X2823168Y504431D1*
X2820316Y507316D1*
X2811052Y524527D2*
Y504431D1*
Y518790D2*
X2806741Y523101D1*
X2803856Y524527D1*
X2799578D1*
X2796693Y523101D1*
X2795267Y518790D1*
Y504431D1*
Y518790D2*
X2790956Y523101D1*
X2788071Y524527D1*
X2783793D1*
X2780908Y523101D1*
X2779449Y518790D1*
Y504431D1*
X2752975Y524527D2*
Y504431D1*
Y520216D2*
X2755826Y523101D1*
X2758712Y524527D1*
X2762989D1*
X2765874Y523101D1*
X2768726Y520216D1*
X2770186Y515905D1*
Y513053D1*
X2768726Y508742D1*
X2765874Y505890D1*
X2762989Y504431D1*
X2758712D1*
X2755826Y505890D1*
X2752975Y508742D1*
X2743711Y534575D2*
X2742285Y533149D1*
X2740826Y534575D1*
X2742285Y536034D1*
X2743711Y534575D1*
X2742285Y524527D2*
Y504431D1*
X2731562Y534575D2*
Y504431D1*
X2720873Y507316D2*
X2722299Y505857D1*
X2720873Y504431D1*
X2719414Y505857D1*
X2720873Y507316D1*
X2692906Y520216D2*
X2695791Y523101D1*
X2698676Y524527D1*
X2702954D1*
X2705839Y523101D1*
X2708691Y520216D1*
X2710150Y515905D1*
Y513053D1*
X2708691Y508742D1*
X2705839Y505890D1*
X2702954Y504431D1*
X2698676D1*
X2695791Y505890D1*
X2692906Y508742D1*
X2676480Y524527D2*
X2679332Y523101D1*
X2682217Y520216D1*
X2683643Y515905D1*
Y513053D1*
X2682217Y508742D1*
X2679332Y505890D1*
X2676480Y504431D1*
X2672169D1*
X2669284Y505890D1*
X2666432Y508742D1*
X2664973Y513053D1*
Y515905D1*
X2666432Y520216D1*
X2669284Y523101D1*
X2672169Y524527D1*
X2676480D1*
X2655709D2*
Y504431D1*
Y518790D2*
X2651398Y523101D1*
X2648513Y524527D1*
X2644235D1*
X2641350Y523101D1*
X2639924Y518790D1*
Y504431D1*
Y518790D2*
X2635613Y523101D1*
X2632728Y524527D1*
X2628450D1*
X2625565Y523101D1*
X2624106Y518790D1*
Y504431D1*
X4159609Y704333D2*
D64*
X4157686Y706234D1*
X4156735Y709108D1*
Y712933D1*
X4157686Y715807D1*
X4159609Y717730D1*
X4161510D1*
X4163434Y716758D1*
X4164384Y715807D1*
X4165335Y713906D1*
X4167258Y708158D1*
X4168209Y706234D1*
X4169182Y705284D1*
X4171083Y704333D1*
X4173957D1*
X4175858Y706234D1*
X4176831Y709108D1*
Y712933D1*
X4175858Y715807D1*
X4173957Y717730D1*
X4156735Y691459D2*
X4176831D1*
X4156735Y698157D2*
Y684760D1*
X4166308Y678584D2*
Y669984D1*
X4165335Y667110D1*
X4164384Y666138D1*
X4162483Y665187D1*
X4160560D1*
X4158658Y666138D1*
X4157686Y667110D1*
X4156735Y669984D1*
Y678584D1*
X4176831D1*
X4166308Y671886D2*
X4176831Y665187D1*
Y643691D2*
X4156735Y651362D1*
X4176831Y659011D1*
X4170132Y656137D2*
Y646565D1*
X4156735Y637515D2*
X4176831D1*
X4156735Y617942D2*
X4176831D1*
X4156735Y631339D1*
X4176831D1*
X4166308Y592326D2*
Y583726D1*
X4165335Y580852D1*
X4164384Y579879D1*
X4162483Y578928D1*
X4160560D1*
X4158658Y579879D1*
X4157686Y580852D1*
X4156735Y583726D1*
Y592326D1*
X4176831D1*
X4166308Y585627D2*
X4176831Y578928D1*
X4156735Y560328D2*
Y572753D1*
X4176831D1*
Y560328D1*
X4166308Y572753D2*
Y565103D1*
X4156735Y554152D2*
X4176831D1*
Y542679D1*
X4156735Y536503D2*
X4176831D1*
X4156735Y517903D2*
Y530327D1*
X4176831D1*
Y517903D1*
X4166308Y530327D2*
Y522678D1*
X4156735Y499280D2*
Y511727D1*
X4176831D1*
X4166308D2*
Y504078D1*
M02*
