M48
INCH
T01C0.0191
T02C0.022
T03C0.0394
T04C0.0472
T05C0.0591
%
T01
X+015437Y+005415
X+019875Y+004790
X+020687Y+004540
T02
X+017562Y+007437
X+018687Y+007500
X+021687Y+007500
X+021312Y+004437
X+018312Y+004437
X+017562Y+004437
X+027812Y+004625
X+027812Y+007625
T03
X+018937Y+005375
X+018437Y+006499
X+020437Y+006500
X+020937Y+005375
X+022187Y+005250
X+022187Y+007250
X+033187Y+006664
X+033187Y+005460
X+039812Y+005602
X+039812Y+004602
X+039812Y+006602
X+039812Y+007602
X+011073Y+007404
X+009301Y+007404
X+009301Y+004845
X+011073Y+004845
X+005937Y+005602
X+005937Y+006602
T04
X+012781Y+007109
X+012781Y+005140
X+016718Y+006125
T05
X+041062Y+007602
X+041062Y+006602
X+041062Y+005602
X+041062Y+004602
T00
M30
