G04 DipTrace 4.3.0.5*
G04 TopDimension.gbr*
%MOIN*%
G04 #@! TF.FileFunction,Drawing,Top*
G04 #@! TF.Part,Single*
%ADD15C,0.001378*%
%ADD65C,0.018527*%
%FSLAX26Y26*%
G04*
G70*
G90*
G75*
G01*
G04 TopDimension*
%LPD*%
X393701Y688976D2*
D15*
Y1025886D1*
X4330709Y781201D2*
Y1025886D1*
X2362205Y1006201D2*
X433071D1*
G36*
X393701D2*
X433071Y1014075D1*
Y998327D1*
X393701Y1006201D1*
G37*
X2362205D2*
D15*
X4291339D1*
G36*
X4330709D2*
X4291339Y998327D1*
Y1014075D1*
X4330709Y1006201D1*
G37*
X4293701Y826772D2*
D15*
X4550886D1*
X4293701Y393701D2*
X4550886D1*
X4531201Y610236D2*
Y787402D1*
G36*
Y826772D2*
X4539075Y787402D1*
X4523327D1*
X4531201Y826772D1*
G37*
Y610236D2*
D15*
Y433071D1*
G36*
Y393701D2*
X4523327Y433071D1*
X4539075D1*
X4531201Y393701D1*
G37*
Y-183868D2*
D15*
Y826772D1*
X2017850Y1140329D2*
D65*
X2029390Y1146165D1*
X2046634Y1163276D1*
Y1042833D1*
X2118177Y1163276D2*
X2100933Y1157573D1*
X2089392Y1140329D1*
X2083689Y1111677D1*
Y1094433D1*
X2089392Y1065781D1*
X2100933Y1048537D1*
X2118177Y1042833D1*
X2129584D1*
X2146829Y1048537D1*
X2158236Y1065781D1*
X2164073Y1094433D1*
Y1111677D1*
X2158236Y1140329D1*
X2146829Y1157573D1*
X2129584Y1163276D1*
X2118177D1*
X2158236Y1140329D2*
X2089392Y1065781D1*
X2235615Y1163276D2*
X2218371Y1157573D1*
X2206831Y1140329D1*
X2201127Y1111677D1*
Y1094433D1*
X2206831Y1065781D1*
X2218371Y1048537D1*
X2235615Y1042833D1*
X2247023D1*
X2264267Y1048537D1*
X2275674Y1065781D1*
X2281511Y1094433D1*
Y1111677D1*
X2275674Y1140329D1*
X2264267Y1157573D1*
X2247023Y1163276D1*
X2235615D1*
X2275674Y1140329D2*
X2206831Y1065781D1*
X2435207Y1123217D2*
Y1042833D1*
Y1100269D2*
X2452451Y1117513D1*
X2463992Y1123217D1*
X2481103D1*
X2492643Y1117513D1*
X2498347Y1100269D1*
Y1042833D1*
Y1100269D2*
X2515591Y1117513D1*
X2527132Y1123217D1*
X2544243D1*
X2555783Y1117513D1*
X2561620Y1100269D1*
Y1042833D1*
X2598674Y1123217D2*
Y1042833D1*
Y1100269D2*
X2615918Y1117513D1*
X2627458Y1123217D1*
X2644570D1*
X2656110Y1117513D1*
X2661814Y1100269D1*
Y1042833D1*
Y1100269D2*
X2679058Y1117513D1*
X2690598Y1123217D1*
X2707710D1*
X2719250Y1117513D1*
X2725086Y1100269D1*
Y1042833D1*
X4665329Y326540D2*
X4671165Y315000D1*
X4688276Y297756D1*
X4567833D1*
X4665329Y260701D2*
X4671165Y249161D1*
X4688276Y231917D1*
X4567833D1*
X4648217Y78221D2*
X4567833D1*
X4625269D2*
X4642513Y60977D1*
X4648217Y49436D1*
Y32325D1*
X4642513Y20785D1*
X4625269Y15081D1*
X4567833D1*
X4625269D2*
X4642513Y-2163D1*
X4648217Y-13704D1*
Y-30815D1*
X4642513Y-42355D1*
X4625269Y-48192D1*
X4567833D1*
X4648217Y-85246D2*
X4567833D1*
X4625269D2*
X4642513Y-102490D1*
X4648217Y-114030D1*
Y-131142D1*
X4642513Y-142682D1*
X4625269Y-148386D1*
X4567833D1*
X4625269D2*
X4642513Y-165630D1*
X4648217Y-177170D1*
Y-194282D1*
X4642513Y-205822D1*
X4625269Y-211659D1*
X4567833D1*
M02*
